# xmcd
#
# Track frame offsets: 
#        150
#        12538
#        29413
#        48275
#        67250
#        88500
#        105913
#        123388
#        140438
#        156200
#        175425
#        190025
#
# Disc length: 2816 seconds
#
# Revision: 24
# Processed by: cddbd v1.5.2PL0 Copyright (c) Steve Scherf et al.
# Submitted via: ExactAudioCopyFreeDBPlugin 1.0
#
DISCID=a00afe0c
DTITLE=蔡琴 - 民歌蔡琴
DYEAR=1996
DGENRE=Pop-Folk
TTITLE0=被遺忘的時光
TTITLE1=跟我說愛我
TTITLE2=你的眼睛
TTITLE3=想你的時候
TTITLE4=抉擇
TTITLE5=我的思念
TTITLE6=出塞曲
TTITLE7=渡口
TTITLE8=怎麼能
TTITLE9=恰似你的温柔
TTITLE10=再愛我一次
TTITLE11=謝幕曲
EXTD=YEAR: 1996
EXTT0=
EXTT1=
EXTT2=
EXTT3=
EXTT4=
EXTT5=
EXTT6=
EXTT7=
EXTT8=
EXTT9=
EXTT10=
EXTT11=
PLAYORDER=
